# xmcd CD database file
# Copyright (C) 1993-1998 Ti Kan
#
# Track frame offsets:
#	150
#	14087
#	28090
#	41350
#	54910
#	69437
#	84490
#	96927
#	111532
#	127137
#	142375
#	156765
#	171980
#	186870
#	201267
#	215402
#	230475
#	245317
#
# Disc length: 3467 seconds
#
# Revision: 1
# Processed by: cddbd v1.4b41PL1 Copyright (c) Steve Scherf et al.
# Submitted via: NotifyCDPlayer(CDDB) 1.51.3
#
DISCID=0d0d8912
DTITLE=Sonny Boy Williamson - The Bluebird Recordings (1938)
DYEAR=1900
DGENRE=
TTITLE0=Honey Bee Blues
TTITLE1=My Baby I've Been Your Slave
TTITLE2=Whiskey Headed Blues
TTITLE3=Lord, Oh Lord Blues
TTITLE4=You Give An Account
TTITLE5=Shannon Street Blues
TTITLE6=You've Been Fooling Around (Down)Town
TTITLE7=Deep Down In The Ground
TTITLE8=Number Five Blues
TTITLE9=Christmas Morning Blues
TTITLE10=Susie-Q
TTITLE11=Blue Bird Blues Pt. 2
TTITLE12=Little Girl Blues
TTITLE13=Low Down Blues
TTITLE14=Goodbye Red
TTITLE15=The Right Kind Of Life
TTITLE16=Insurance Man Blues
TTITLE17=Rainy Day Blues
EXTD=
EXTT0=
EXTT1=
EXTT2=
EXTT3=
EXTT4=
EXTT5=
EXTT6=
EXTT7=
EXTT8=
EXTT9=
EXTT10=
EXTT11=
EXTT12=
EXTT13=
EXTT14=
EXTT15=
EXTT16=
EXTT17=
PLAYORDER=
